<svg width="20" height="24" viewBox="0 0 20 24" fill="none" xmlns="http://www.w3.org/2000/svg">
<path d="M18.7507 14.0002C18.7507 15.7309 18.2374 17.4225 17.276 18.8615C16.3145 20.3005 14.948 21.422 13.3491 22.0842C11.7503 22.7465 9.99097 22.9198 8.29359 22.5821C6.59629 22.2445 5.03719 21.4111 3.81347 20.1874C2.58977 18.9637 1.7564 17.4047 1.41878 15.7073C1.08116 14.0099 1.25445 12.2506 1.91672 10.6518C2.57897 9.05294 3.70049 7.68637 5.13942 6.72491C6.57835 5.76345 8.27002 5.25027 10.0007 5.25027H13.6006L10.789 8.06263L11.6138 8.88758L15.834 4.66693L11.6133 0.446289L10.7885 1.27123L13.6006 4.0836H10.0007C8.03937 4.0836 6.12205 4.66521 4.49126 5.75486C2.86047 6.84452 1.58942 8.39329 0.838855 10.2053C0.0882802 12.0174 -0.108105 14.0113 0.274539 15.9349C0.65717 17.8585 1.60165 19.6256 2.98852 21.0124C4.37538 22.3993 6.14237 23.3437 8.06597 23.7264C9.98969 24.1091 11.9835 23.9126 13.7956 23.1621C15.6077 22.4116 17.1564 21.1405 18.2461 19.5097C19.3357 17.8789 19.9173 15.9616 19.9173 14.0002H18.7507Z" fill="#323232"/>
</svg>
