<svg width="20" height="24" viewBox="0 0 20 24" fill="none" xmlns="http://www.w3.org/2000/svg">
<path d="M17.0123 6.98778C16.0936 6.06422 15.0009 5.332 13.7973 4.83351C12.5938 4.33501 11.3034 4.08012 10.0007 4.0836H6.40067L9.21233 1.27123L8.3875 0.446289L4.16732 4.66693L8.38797 8.88758L9.2128 8.06263L6.40067 5.25027H10.0007C11.7313 5.25027 13.4229 5.76345 14.8619 6.72491C16.3008 7.68637 17.4223 9.05294 18.0846 10.6518C18.7469 12.2506 18.9202 14.0099 18.5825 15.7073C18.2449 17.4047 17.4116 18.9637 16.1878 20.1874C14.9641 21.4111 13.405 22.2445 11.7077 22.5821C10.0103 22.9198 8.251 22.7465 6.65217 22.0842C5.05332 21.422 3.68676 20.3005 2.72529 18.8615C1.76383 17.4225 1.25065 15.7309 1.25065 14.0002H0.0839844C0.083961 15.6311 0.486146 17.2368 1.25492 18.6751C2.02368 20.1133 3.13531 21.3399 4.4913 22.2459C5.84731 23.1519 7.40582 23.7095 9.02882 23.8693C10.6518 24.0291 12.2892 23.7862 13.7958 23.1621C15.3026 22.538 16.632 21.5518 17.6666 20.2911C18.7011 19.0304 19.4088 17.5341 19.7269 15.9346C20.045 14.3351 19.9636 12.6818 19.4902 11.1212C19.0166 9.56061 18.1656 8.14088 17.0123 6.98778Z" fill="#323232"/>
</svg>
