<svg width="24" height="24" viewBox="0 0 24 24" fill="none" xmlns="http://www.w3.org/2000/svg">
<path d="M0.5 7.33338V16.6667H6.43355L13.3333 23.5664V0.433594L6.43355 7.33338H0.5ZM12.1667 3.25004V20.75L7.2585 15.8417L6.91667 15.5H1.66667V8.50004H6.91667L12.1667 3.25004ZM16.3353 9.93745C16.8815 10.4848 17.1884 11.2266 17.1884 11.9999C17.1884 12.7733 16.8815 13.515 16.3353 14.0623L17.1602 14.8873C17.9249 14.1209 18.3543 13.0824 18.3543 11.9998C18.3543 10.9172 17.9249 9.87876 17.1602 9.11231L16.3353 9.93745ZM20.46 5.81274L19.6352 6.63769C21.0551 8.06099 21.8527 9.98936 21.8527 11.9999C21.8527 14.0104 21.0551 15.9389 19.6352 17.3621L20.46 18.1871C22.0986 16.545 23.0189 14.3198 23.0189 12C23.0189 9.6802 22.0986 7.45504 20.46 5.81286V5.81274Z" fill="#323232"/>
</svg>
